PathFileType	4	(X/Y/Z)	/Users/itak/Documents/Research/Walk-IL/dataset/trc/00034_00004.trc
DataRate	CameraRate	NumFrames	NumMarkers	Units	OrigDataRate	OrigDataStartFrame	OrigNumFrames
100.000000	100.000000	4	53	mm	100.000000	705	806
Frame#	Time	RPSI			LPSI			L3			STRN			T10			C7			CLAV			RBAK			LBAK			LSHO			LUPA			LAEL			LAOL			LWTS			LWPS			LFRA			LIFD			LHPS			LHTS			RSHO			RUPA			RAEL			RAOL			RWTS			RWPS			RFRA			RIFD			RHTS			RHPS			RBHD			LFHD			RFHD			LBHD			LHIP			RHIP			RASI			LASI			LKNE			LTHI			LANK			LTIP			LTOE			LMT1			LMT5			LHEE			RKNE			RTHI			RANK			RTIP			RTOE			RMT1			RMT5			RHEE			
		X1	Y1	Z1	X2	Y2	Z2	X3	Y3	Z3	X4	Y4	Z4	X5	Y5	Z5	X6	Y6	Z6	X7	Y7	Z7	X8	Y8	Z8	X9	Y9	Z9	X10	Y10	Z10	X11	Y11	Z11	X12	Y12	Z12	X13	Y13	Z13	X14	Y14	Z14	X15	Y15	Z15	X16	Y16	Z16	X17	Y17	Z17	X18	Y18	Z18	X19	Y19	Z19	X20	Y20	Z20	X21	Y21	Z21	X22	Y22	Z22	X23	Y23	Z23	X24	Y24	Z24	X25	Y25	Z25	X26	Y26	Z26	X27	Y27	Z27	X28	Y28	Z28	X29	Y29	Z29	X30	Y30	Z30	X31	Y31	Z31	X32	Y32	Z32	X33	Y33	Z33	X34	Y34	Z34	X35	Y35	Z35	X36	Y36	Z36	X37	Y37	Z37	X38	Y38	Z38	X39	Y39	Z39	X40	Y40	Z40	X41	Y41	Z41	X42	Y42	Z42	X43	Y43	Z43	X44	Y44	Z44	X45	Y45	Z45	X46	Y46	Z46	X47	Y47	Z47	X48	Y48	Z48	X49	Y49	Z49	X50	Y50	Z50	X51	Y51	Z51	X52	Y52	Z52	X53	Y53	Z53	

706	7.05	416.9273071289062	1070.1904296875	1010.02978515625	450.4949951171875	1060.558959960938	1170.949829101562	444.8936462402344	1120.8046875	1100.519287109375	243.9946594238281	1326.3935546875	1134.816650390625	485.4225769042969	1262.05517578125	1106.26513671875	457.4520263671875	1532.550170898438	1127.879028320312	293.7471313476562	1449.475463867188	1135.637451171875	493.5897827148438	1393.451538085938	1040.9130859375	482.7845764160156	1488.957153320312	1221.273315429688	390.0828552246094	1501.385620117188	1304.727172851562	425.5782775878906	1375.495727539062	1378.678466796875	423.7205505371094	1158.540649414062	1405.973510742188	468.4603576660156	1144.953247070312	1310.749755859375	317.4632263183594	910.8964233398438	1353.2919921875	395.6651611328125	892.1796264648438	1391.720336914062	405.072265625	1042.892333984375	1412.609375	282.4918823242188	727.5523071289062	1330.957641601562	357.9169616699219	803.8969116210938	1390.39404296875	292.4734191894531	817.7157592773438	1364.065551757812	366.1590576171875	1524.91943359375	961.60498046875	373.2514953613281	1458.618896484375	888.1107788085938	407.2669067382812	1193.374145507812	842.30859375	407.8666687011719	1159.907836914062	936.038818359375	214.2014007568359	979.0518798828125	884.6168212890625	261.74072265625	946.1375732421875	811.955322265625	376.4342956542969	1118.42431640625	823.9031372070312	142.746826171875	807.7965087890625	906.64404296875	145.3839721679688	887.00634765625	875.185546875	191.4099578857422	863.6527099609375	819.1718139648438	376.4088745117188	1736.244140625	1187.15966796875	215.9701690673828	1704.615844726562	1042.754516601562	202.2502899169922	1715.526733398438	1139.570556640625	390.4577331542969	1716.92724609375	1044.688232421875	371.1454467773438	960.4827880859375	1293.015991210938	280.6929931640625	959.7647094726562	930.9429931640625	196.6501312255859	999.2443237304688	1023.234558105469	245.7015533447266	1012.253601074219	1252.87939453125	316.8818054199219	519.62451171875	1251.702392578125	345.7310180664062	655.5614624023438	1284.460815429688	431.8677368164062	41.79520797729492	1239.350830078125	404.1925048828125	287.7365417480469	1259.818115234375	207.1402893066406	40.36388397216797	1189.0166015625	266.023681640625	48.7764892578125	1169.818237304688	310.0401306152344	37.4915885925293	1269.132934570312	496.3558044433594	49.55917358398438	1182.677124023438	276.2262268066406	522.7828369140625	978.9143676757812	259.9598083496094	793.9869384765625	935.9659423828125	408.9563903808594	44.48989105224609	984.016845703125	305.5398254394531	399.5126037597656	975.4954833984375	183.1694641113281	41.06367874145508	1054.247802734375	249.6430511474609	45.66866683959961	1074.260986328125	257.9555053710938	42.08804702758789	978.8019409179688	469.2132568359375	46.35091400146484	1022.640441894531	
707	7.06	416.3918151855469	1070.22998046875	1009.796569824219	450.2135009765625	1060.594970703125	1170.66015625	444.4900207519531	1120.819946289062	1100.235961914062	243.6591796875	1326.359130859375	1134.953735351562	485.0728759765625	1262.07861328125	1105.927490234375	457.0213012695312	1532.572998046875	1127.632568359375	293.5987854003906	1449.376708984375	1135.754760742188	493.0617370605469	1393.4892578125	1040.587768554688	482.5639343261719	1488.931396484375	1220.967163085938	390.0399780273438	1501.332763671875	1304.626586914062	425.76513671875	1375.410400390625	1378.470947265625	424.0425720214844	1158.461791992188	1405.672729492188	468.5236206054688	1144.934692382812	1310.362915039062	318.0048217773438	910.6206665039062	1353.194213867188	396.4270629882812	892.0767822265625	1391.492797851562	405.538818359375	1042.788696289062	1412.3505859375	283.3501892089844	727.1473388671875	1331.09326171875	358.8046875	803.7283935546875	1390.269287109375	293.3490905761719	817.4708862304688	1364.17822265625	365.3876953125	1524.925048828125	961.5426025390625	372.4628601074219	1458.658325195312	888.0255126953125	406.7066650390625	1193.57275390625	841.8113403320312	407.4708862304688	1160.00341796875	935.4981079101562	213.9102630615234	979.1007080078125	884.39453125	261.2066650390625	946.2595825195312	811.5269165039062	375.889892578125	1118.594116210938	823.3890380859375	142.4897613525391	807.7173461914062	906.3965454101562	145.1473083496094	886.927978515625	875.0932006835938	191.0581970214844	863.7059326171875	818.8889770507812	376.1605834960938	1736.181762695312	1187.17529296875	215.4804382324219	1704.705078125	1042.99951171875	201.9003753662109	1715.578857421875	1139.862060546875	389.9916687011719	1716.906005859375	1044.665161132812	371.0993041992188	960.4625244140625	1292.87939453125	280.1229553222656	959.7443237304688	930.8724365234375	196.2268524169922	999.1776733398438	1023.33544921875	245.5957794189453	1012.166870117188	1252.889892578125	317.6276245117188	519.5328369140625	1251.645385742188	346.225341796875	655.5479125976562	1284.368408203125	431.8759765625	41.79027938842773	1239.365478515625	404.7398681640625	287.8067321777344	1259.746826171875	207.1709136962891	40.37882995605469	1189.027954101562	266.0490417480469	48.78869247436523	1169.821044921875	310.0391845703125	37.49641799926758	1269.120361328125	496.3718872070312	49.49000930786133	1182.68212890625	277.0672607421875	522.8145141601562	978.8165893554688	259.8895263671875	793.9391479492188	935.9304809570312	408.998046875	44.42432403564453	984.0044555664062	306.3719177246094	399.6289978027344	975.3318481445312	183.1957244873047	41.08342361450195	1054.251708984375	249.6866607666016	45.68220138549805	1074.254760742188	257.9697570800781	42.09708404541016	978.8096313476562	469.2103271484375	46.17354965209961	1022.597290039062	
708	7.07	415.8559875488281	1070.278198242188	1009.571411132812	449.9625854492188	1060.624877929688	1170.379638671875	444.1203002929688	1120.830322265625	1099.9609375	243.3411254882812	1326.325805664062	1135.09912109375	484.7231750488281	1262.090576171875	1105.60791015625	456.6227416992188	1532.584838867188	1127.405029296875	293.4256286621094	1449.282104492188	1135.891235351562	492.5692443847656	1393.514038085938	1040.280517578125	482.3656005859375	1488.893432617188	1220.676879882812	390.0356750488281	1501.279052734375	1304.550537109375	425.9769897460938	1375.320190429688	1378.287109375	424.3782348632812	1158.387451171875	1405.41845703125	468.6128845214844	1144.900634765625	1310.02392578125	318.50537109375	910.3672485351562	1353.160766601562	397.1286010742188	891.9754028320312	1391.332763671875	405.9887390136719	1042.6953125	1412.154174804688	284.0582885742188	726.78515625	1331.28076171875	359.5835876464844	803.5692749023438	1390.205322265625	294.123046875	817.2667846679688	1364.34765625	364.6737365722656	1524.923461914062	961.4983520507812	371.7087707519531	1458.6943359375	887.9556274414062	406.1968078613281	1193.763305664062	841.3550415039062	407.1380004882812	1160.093872070312	935.0025634765625	213.69970703125	979.09814453125	884.246826171875	260.7857971191406	946.3390502929688	811.1646118164062	375.423828125	1118.7421875	822.92431640625	142.3665618896484	807.584716796875	906.2133178710938	145.0349273681641	886.7620239257812	875.065673828125	190.828369140625	863.6954956054688	818.673828125	375.9514465332031	1736.126220703125	1187.1982421875	215.0070037841797	1704.7666015625	1043.274780273438	201.5771484375	1715.605834960938	1140.223754882812	389.5233764648438	1716.884643554688	1044.650024414062	371.0482482910156	960.4442749023438	1292.760620117188	279.543701171875	959.7207641601562	930.8123779296875	195.8059692382812	999.114013671875	1023.455200195312	245.5099334716797	1012.075805664062	1252.919067382812	318.4145812988281	519.4285888671875	1251.582153320312	346.7318725585938	655.5314331054688	1284.286254882812	431.8866577148438	41.78394317626953	1239.382568359375	405.2537841796875	287.8628845214844	1259.691650390625	207.2049407958984	40.39500045776367	1189.039428710938	266.0815124511719	48.79946517944336	1169.82373046875	310.0412292480469	37.50050354003906	1269.109985351562	496.3943786621094	49.42518997192383	1182.682739257812	277.9405822753906	522.8318481445312	978.719482421875	259.8336181640625	793.9091796875	935.9232788085938	409.0420837402344	44.35933303833008	983.9918212890625	307.2326049804688	399.7545166015625	975.15478515625	183.2252197265625	41.10444259643555	1054.253051757812	249.7207489013672	45.7008056640625	1074.249145507812	257.98779296875	42.10693740844727	978.8160400390625	469.2011108398438	45.98335647583008	1022.553466796875	
709	7.08	415.3231811523438	1070.33642578125	1009.351806640625	449.7432861328125	1060.648803710938	1170.10791015625	443.784912109375	1120.834838867188	1099.695434570312	243.0434875488281	1326.290405273438	1135.253173828125	484.3712768554688	1262.089599609375	1105.3076171875	456.2581481933594	1532.582397460938	1127.196533203125	293.2176513671875	1449.19189453125	1136.041381835938	492.1076049804688	1393.52587890625	1039.988403320312	482.1914672851562	1488.84326171875	1220.40234375	390.0674743652344	1501.222045898438	1304.495971679688	426.2047729492188	1375.225341796875	1378.125	424.7197570800781	1158.316284179688	1405.209594726562	468.7268676757812	1144.850463867188	1309.730834960938	318.9733581542969	910.13720703125	1353.201904296875	397.7697448730469	891.8739624023438	1391.236083984375	406.4259033203125	1042.610473632812	1412.016967773438	284.63037109375	726.475830078125	1331.514892578125	360.2596740722656	803.4152221679688	1390.201293945312	294.7793579101562	817.0852661132812	1364.558349609375	364.0086364746094	1524.915771484375	961.4706420898438	370.9803161621094	1458.729125976562	887.8991088867188	405.7386169433594	1193.943359375	840.9443359375	406.8729553222656	1160.176025390625	934.5579833984375	213.5713806152344	979.0476684570312	884.1724853515625	260.4744873046875	946.380126953125	810.8724975585938	375.0350341796875	1118.869995117188	822.513916015625	142.3640441894531	807.4089965820312	906.0950927734375	145.0281677246094	886.5188598632812	875.0966796875	190.70556640625	863.6270141601562	818.5286865234375	375.7846984863281	1736.078369140625	1187.224365234375	214.5566253662109	1704.805786132812	1043.575073242188	201.294189453125	1715.6123046875	1140.643432617188	389.0586853027344	1716.864624023438	1044.644287109375	371.008056640625	960.4285888671875	1292.652587890625	278.9411010742188	959.6932983398438	930.7643432617188	195.3792572021484	999.0516357421875	1023.592834472656	245.4439086914062	1011.979125976562	1252.972045898438	319.207275390625	519.32080078125	1251.512451171875	347.2515869140625	655.5162353515625	1284.211059570312	431.8992004394531	41.77404403686523	1239.40087890625	405.7361145019531	287.90576171875	1259.650146484375	207.2418670654297	40.41285705566406	1189.050048828125	266.1210021972656	48.80780410766602	1169.826782226562	310.0465393066406	37.50471115112305	1269.101928710938	496.4240112304688	49.36673736572266	1182.676025390625	278.8352661132812	522.8338012695312	978.6223754882812	259.7793273925781	793.8995361328125	935.9564819335938	409.0867004394531	44.29680252075195	983.9774780273438	308.1012573242188	399.8873901367188	974.9619750976562	183.2583160400391	41.12644958496094	1054.253051757812	249.7475128173828	45.72437286376953	1074.243041992188	258.0091552734375	42.11665344238281	978.8196411132812	469.1901550292969	45.78862762451172	1022.509033203125	
